<svg width="50" height="51" viewBox="0 0 50 51" fill="none" xmlns="http://www.w3.org/2000/svg">
<path d="M49.0234 29.8945C49.0234 29.0534 48.7854 28.267 48.3739 27.5982C49.3652 26.7918 50 25.5632 50 24.1887C50 21.7233 47.9876 19.6406 45.6055 19.6406H38.1836V12.3164C38.1836 8.27783 34.8979 4.99219 30.8594 4.99219C30.0504 4.99219 29.3945 5.64805 29.3945 6.45703V14.4621L23.6954 18.2615C22.1753 19.275 21.1363 20.8248 20.7609 22.5703H17.6758V21.1055C17.6758 20.2965 17.0199 19.6406 16.2109 19.6406H1.46484C0.655859 19.6406 0 20.2965 0 21.1055V44.543C0 45.352 0.655859 46.0078 1.46484 46.0078H16.2109C17.0199 46.0078 17.6758 45.352 17.6758 44.543V43.0781H21.4869C23.5937 44.9721 26.2888 46.0078 29.1432 46.0078H42.6758C45.0989 46.0078 47.0703 44.0364 47.0703 41.6133C47.0703 40.7288 46.8067 39.9052 46.3554 39.2149C47.3839 38.41 48.0469 37.1583 48.0469 35.7539C48.0469 34.8694 47.7833 34.0458 47.3319 33.3556C48.3604 32.5506 49.0234 31.2989 49.0234 29.8945ZM14.7461 43.0781H2.92969V22.5703H14.7461V43.0781ZM46.2576 25.5H44.6289C43.8199 25.5 43.1641 26.1559 43.1641 26.9648C43.1641 27.7738 43.8199 28.4297 44.6289 28.4297C45.4366 28.4297 46.0938 29.0868 46.0938 29.8945C46.0938 30.7022 45.4366 31.3594 44.6289 31.3594C44.5066 31.3594 43.8637 31.3594 43.6523 31.3594C42.8434 31.3594 42.1875 32.0152 42.1875 32.8242C42.1875 33.6332 42.8434 34.2891 43.6523 34.2891C44.4601 34.2891 45.1172 34.9462 45.1172 35.7539C45.1172 36.5616 44.4601 37.2188 43.6523 37.2188C43.5301 37.2188 42.8871 37.2188 42.6758 37.2188C41.8668 37.2188 41.2109 37.8746 41.2109 38.6836C41.2109 39.4926 41.8668 40.1484 42.6758 40.1484C43.4835 40.1484 44.1406 40.8056 44.1406 41.6133C44.1406 42.421 43.4835 43.0781 42.6758 43.0781H29.1432C26.8627 43.0781 24.7187 42.19 23.1061 40.5774C22.8313 40.3027 22.4588 40.1484 22.0703 40.1484H17.6758V25.5H22.0703C22.8793 25.5 23.5352 24.8441 23.5352 24.0352C23.5352 22.6916 24.2025 21.4445 25.3205 20.6992L31.672 16.4649C32.0795 16.1933 32.3243 15.7358 32.3243 15.2461V8.17285C34.0295 8.77744 35.254 10.4066 35.254 12.3164V21.1055C35.254 21.9145 35.9099 22.5703 36.7188 22.5703H45.6056C46.3723 22.5703 47.0704 23.3416 47.0704 24.1887C47.0703 24.7622 46.739 25.2598 46.2576 25.5ZM10.3516 28.4297C11.1605 28.4297 11.8164 27.7738 11.8164 26.9648C11.8164 26.1559 11.1605 25.5 10.3516 25.5C9.54258 25.5 8.88672 26.1559 8.88672 26.9648C8.88672 27.7738 9.54258 28.4297 10.3516 28.4297Z" fill="#001D45"/>
</svg>
