<svg width="50" height="51" viewBox="0 0 50 51" fill="none" xmlns="http://www.w3.org/2000/svg">
<g clip-path="url(#clip0)">
<path d="M45.5078 0.5H4.49219C3.6832 0.5 3.02734 1.15586 3.02734 1.96484V49.0352C3.02734 49.8441 3.6832 50.5 4.49219 50.5H45.5078C46.3168 50.5 46.9727 49.8441 46.9727 49.0352V1.96484C46.9727 1.15586 46.3168 0.5 45.5078 0.5ZM44.043 47.5703H5.95703V3.42969H44.043V47.5703ZM10.3516 21.1055H39.6484C40.4574 21.1055 41.1133 20.4496 41.1133 19.6406V7.82422C41.1133 7.01523 40.4574 6.35938 39.6484 6.35938H10.3516C9.54258 6.35938 8.88672 7.01523 8.88672 7.82422V19.6406C8.88672 20.4496 9.54258 21.1055 10.3516 21.1055ZM11.8164 9.28906H38.1836V18.1758H11.8164V9.28906ZM10.3516 32.8242H16.2109C17.0199 32.8242 17.6758 32.1684 17.6758 31.3594V25.5C17.6758 24.691 17.0199 24.0352 16.2109 24.0352H10.3516C9.54258 24.0352 8.88672 24.691 8.88672 25.5V31.3594C8.88672 32.1684 9.54258 32.8242 10.3516 32.8242ZM11.8164 26.9648H14.7461V29.8945H11.8164V26.9648ZM10.3516 44.543H16.2109C17.0199 44.543 17.6758 43.8871 17.6758 43.0781V37.2188C17.6758 36.4098 17.0199 35.7539 16.2109 35.7539H10.3516C9.54258 35.7539 8.88672 36.4098 8.88672 37.2188V43.0781C8.88672 43.8871 9.54258 44.543 10.3516 44.543ZM11.8164 38.6836H14.7461V41.6133H11.8164V38.6836ZM27.9297 24.0352H22.0703C21.2613 24.0352 20.6055 24.691 20.6055 25.5V31.3594C20.6055 32.1684 21.2613 32.8242 22.0703 32.8242H27.9297C28.7387 32.8242 29.3945 32.1684 29.3945 31.3594V25.5C29.3945 24.691 28.7387 24.0352 27.9297 24.0352ZM26.4648 29.8945H23.5352V26.9648H26.4648V29.8945ZM27.9297 35.7539H22.0703C21.2613 35.7539 20.6055 36.4098 20.6055 37.2188V43.0781C20.6055 43.8871 21.2613 44.543 22.0703 44.543H27.9297C28.7387 44.543 29.3945 43.8871 29.3945 43.0781V37.2188C29.3945 36.4098 28.7387 35.7539 27.9297 35.7539ZM26.4648 41.6133H23.5352V38.6836H26.4648V41.6133ZM39.6484 24.0352H33.7891C32.9801 24.0352 32.3242 24.691 32.3242 25.5V31.3594C32.3242 32.1684 32.9801 32.8242 33.7891 32.8242H39.6484C40.4574 32.8242 41.1133 32.1684 41.1133 31.3594V25.5C41.1133 24.691 40.4574 24.0352 39.6484 24.0352ZM38.1836 29.8945H35.2539V26.9648H38.1836V29.8945ZM39.6484 35.7539H33.7891C32.9801 35.7539 32.3242 36.4098 32.3242 37.2188V43.0781C32.3242 43.8871 32.9801 44.543 33.7891 44.543H39.6484C40.4574 44.543 41.1133 43.8871 41.1133 43.0781V37.2188C41.1133 36.4098 40.4574 35.7539 39.6484 35.7539ZM38.1836 41.6133H35.2539V38.6836H38.1836V41.6133ZM19.1406 12.3164H16.2109C15.402 12.3164 14.7461 12.9723 14.7461 13.7812C14.7461 14.5902 15.402 15.2461 16.2109 15.2461H19.1406C19.9496 15.2461 20.6055 14.5902 20.6055 13.7812C20.6055 12.9723 19.9496 12.3164 19.1406 12.3164Z" fill="#001D45"/>
</g>
<defs>
<clipPath id="clip0">
<rect width="50" height="50" fill="white" transform="translate(0 0.5)"/>
</clipPath>
</defs>
</svg>
