<svg width="52" height="53" viewBox="0 0 52 53" fill="none" xmlns="http://www.w3.org/2000/svg">
<path d="M21.125 3.75C19.8321 3.75 18.5921 4.26361 17.6779 5.17785C16.7636 6.09209 16.25 7.33207 16.25 8.625V10.25H4.875C3.58207 10.25 2.34209 10.7636 1.42785 11.6779C0.513615 12.5921 0 13.8321 0 15.125L0 41.125C0 42.4179 0.513615 43.6579 1.42785 44.5721C2.34209 45.4864 3.58207 46 4.875 46H47.125C48.4179 46 49.6579 45.4864 50.5721 44.5721C51.4864 43.6579 52 42.4179 52 41.125V15.125C52 13.8321 51.4864 12.5921 50.5721 11.6779C49.6579 10.7636 48.4179 10.25 47.125 10.25H35.75V8.625C35.75 7.33207 35.2364 6.09209 34.3221 5.17785C33.4079 4.26361 32.1679 3.75 30.875 3.75H21.125ZM21.125 7H30.875C31.306 7 31.7193 7.17121 32.024 7.47595C32.3288 7.7807 32.5 8.19402 32.5 8.625V10.25H19.5V8.625C19.5 8.19402 19.6712 7.7807 19.976 7.47595C20.2807 7.17121 20.694 7 21.125 7ZM27.2545 29.4705L48.75 23.7407V41.125C48.75 41.556 48.5788 41.9693 48.274 42.274C47.9693 42.5788 47.556 42.75 47.125 42.75H4.875C4.44402 42.75 4.0307 42.5788 3.72595 42.274C3.4212 41.9693 3.25 41.556 3.25 41.125V23.7375L24.7455 29.4705C25.5675 29.6894 26.4325 29.6894 27.2545 29.4705ZM4.875 13.5H47.125C47.556 13.5 47.9693 13.6712 48.274 13.976C48.5788 14.2807 48.75 14.694 48.75 15.125V20.377L26.4192 26.331C26.1446 26.4044 25.8554 26.4044 25.5807 26.331L3.25 20.377V15.125C3.25 14.694 3.4212 14.2807 3.72595 13.976C4.0307 13.6712 4.44402 13.5 4.875 13.5Z" fill="#001D45"/>
</svg>
