<svg width="50" height="51" viewBox="0 0 50 51" fill="none" xmlns="http://www.w3.org/2000/svg">
<g clip-path="url(#clip0)">
<path d="M43.2102 31.6466C42.1726 27.3646 40.2436 23.1923 37.7786 19.8979C36.3988 18.0537 34.8831 16.5273 33.2791 15.3438H36.7189C39.142 15.3438 41.1134 17.3151 41.1134 19.7383C41.1134 20.5473 41.7693 21.2031 42.5782 21.2031C43.3872 21.2031 44.0431 20.5473 44.0431 19.7383C44.0431 15.6997 40.7574 12.4141 36.7189 12.4141H32.095C34.1495 10.1359 35.254 6.58633 35.254 1.96484C35.254 1.15586 34.5982 0.5 33.7892 0.5H30.8595C28.4661 0.5 26.3375 1.6541 25.0001 3.43477C23.6628 1.6541 21.5341 0.5 19.1407 0.5H16.2111C15.4021 0.5 14.7462 1.15586 14.7462 1.96484C14.7462 7.60137 16.3893 11.6436 19.395 13.7287C16.7963 14.9669 14.3481 17.0561 12.2216 19.8979C9.75656 23.1923 7.82766 27.3646 6.79006 31.6466C5.7299 36.0217 5.676 40.2335 6.6385 43.506C7.84973 47.624 11.8488 50.5001 16.3639 50.5H33.6364H33.6365C38.1512 50.5 42.1508 47.6237 43.3617 43.506C44.3241 40.2335 44.2704 36.0218 43.2102 31.6466ZM17.7187 3.42969H19.1407C21.5639 3.42969 23.5353 5.40107 23.5353 7.82422C23.5353 8.6332 24.1911 9.28906 25.0001 9.28906C25.8091 9.28906 26.465 8.6332 26.465 7.82422C26.465 5.40107 28.4363 3.42969 30.8595 3.42969H32.2816C32.0188 7.82109 30.4425 12.4141 25.0001 12.4141C19.5577 12.4141 17.9816 7.82109 17.7187 3.42969ZM40.5511 42.6794C39.7042 45.5591 36.8609 47.5703 33.6364 47.5703H16.3639C13.1396 47.5703 10.2962 45.5591 9.44924 42.6794C7.74182 36.8739 9.94211 27.8346 14.5674 21.6531C17.6117 17.5845 21.3169 15.3438 25.0001 15.3438C28.6833 15.3438 32.3885 17.5845 35.4329 21.6531C40.0582 27.8346 42.2585 36.8738 40.5511 42.6794ZM23.5353 27.0625H26.465C27.2727 27.0625 27.9298 27.7196 27.9298 28.5273C27.9298 29.3363 28.5857 29.9922 29.3947 29.9922C30.2036 29.9922 30.8595 29.3363 30.8595 28.5273C30.8595 26.1042 28.8881 24.1328 26.465 24.1328V22.668C26.465 21.859 25.8091 21.2031 25.0001 21.2031C24.1911 21.2031 23.5353 21.859 23.5353 22.668V24.1328C21.1121 24.1328 19.1407 26.1042 19.1407 28.5273C19.1407 30.9505 21.1121 32.9219 23.5353 32.9219H26.465C27.2727 32.9219 27.9298 33.579 27.9298 34.3867C27.9298 35.1944 27.2727 35.8516 26.465 35.8516H23.5353C22.7276 35.8516 22.0704 35.1944 22.0704 34.3867C22.0704 33.5777 21.4146 32.9219 20.6056 32.9219C19.7966 32.9219 19.1407 33.5777 19.1407 34.3867C19.1407 36.8099 21.1121 38.7812 23.5353 38.7812V40.2461C23.5353 41.0551 24.1911 41.7109 25.0001 41.7109C25.8091 41.7109 26.465 41.0551 26.465 40.2461V38.7812C28.8881 38.7812 30.8595 36.8099 30.8595 34.3867C30.8595 31.9636 28.8881 29.9922 26.465 29.9922H23.5353C22.7276 29.9922 22.0704 29.3351 22.0704 28.5273C22.0704 27.7196 22.7276 27.0625 23.5353 27.0625Z" fill="#001D45"/>
</g>
<defs>
<clipPath id="clip0">
<rect width="50" height="50" fill="white" transform="translate(0 0.5)"/>
</clipPath>
</defs>
</svg>
