<svg width="50" height="51" viewBox="0 0 50 51" fill="none" xmlns="http://www.w3.org/2000/svg">
<path d="M33.8867 31.3594H39.7461C40.5551 31.3594 41.2109 30.7035 41.2109 29.8945V15.2461C41.2109 14.4371 40.5551 13.7812 39.7461 13.7812H33.8867C33.0777 13.7812 32.4219 14.4371 32.4219 15.2461V29.8945C32.4219 30.7035 33.0777 31.3594 33.8867 31.3594ZM35.3516 16.7109H38.2812V28.4297H35.3516V16.7109ZM48.5352 34.2891H46.8184C46.981 33.8306 47.0703 33.3377 47.0703 32.8242V12.3164C47.0703 9.89326 45.0989 7.92188 42.6758 7.92188H7.32422C4.90107 7.92188 2.92969 9.89326 2.92969 12.3164V32.8242C2.92969 33.3377 3.01904 33.8306 3.18164 34.2891H1.46484C0.655859 34.2891 0 34.9449 0 35.7539C0 39.7925 3.28564 43.0781 7.32422 43.0781H42.6758C46.7144 43.0781 50 39.7925 50 35.7539C50 34.9449 49.3441 34.2891 48.5352 34.2891ZM5.85938 12.3164C5.85938 11.5087 6.5165 10.8516 7.32422 10.8516H42.6758C43.4835 10.8516 44.1406 11.5087 44.1406 12.3164V32.8242C44.1406 33.6319 43.4835 34.2891 42.6758 34.2891H7.32422C6.5165 34.2891 5.85938 33.6319 5.85938 32.8242V12.3164ZM42.6758 40.1484H7.32422C5.41445 40.1484 3.78525 38.9239 3.18066 37.2188H46.8193C46.2147 38.9239 44.5855 40.1484 42.6758 40.1484ZM10.2539 31.3594H16.1133C16.9223 31.3594 17.5781 30.7035 17.5781 29.8945V24.0352C17.5781 23.2262 16.9223 22.5703 16.1133 22.5703H10.2539C9.44492 22.5703 8.78906 23.2262 8.78906 24.0352V29.8945C8.78906 30.7035 9.44492 31.3594 10.2539 31.3594ZM11.7188 25.5H14.6484V28.4297H11.7188V25.5ZM22.0703 31.3594H27.9297C28.7387 31.3594 29.3945 30.7035 29.3945 29.8945V21.1055C29.3945 20.2965 28.7387 19.6406 27.9297 19.6406H22.0703C21.2613 19.6406 20.6055 20.2965 20.6055 21.1055V29.8945C20.6055 30.7035 21.2613 31.3594 22.0703 31.3594ZM23.5352 22.5703H26.4648V28.4297H23.5352V22.5703Z" fill="#001D45"/>
</svg>
