<svg width="25" height="24" viewBox="0 0 25 24" fill="none" xmlns="http://www.w3.org/2000/svg">
<g clip-path="url(#clip0)">
<path d="M24.7302 22.7997L18.2168 16.2862C19.7155 14.5584 20.6237 12.3052 20.6237 9.84375C20.6237 4.41591 16.2077 0 10.7799 0C5.35206 0 0.936157 4.41591 0.936157 9.84375C0.936157 15.2716 5.35206 19.6875 10.7799 19.6875C13.2413 19.6875 15.4946 18.7793 17.2224 17.2806L23.7359 23.7941C24.0104 24.0686 24.4556 24.0687 24.7302 23.7941C25.0048 23.5195 25.0048 23.0743 24.7302 22.7997ZM10.7799 18.2812C6.12747 18.2812 2.34241 14.4962 2.34241 9.84375C2.34241 5.19131 6.12747 1.40625 10.7799 1.40625C15.4323 1.40625 19.2174 5.19131 19.2174 9.84375C19.2174 14.4722 15.4548 18.2812 10.7799 18.2812Z" fill="#001D45"/>
</g>
<defs>
<clipPath id="clip0">
<rect width="24" height="24" fill="white" transform="translate(0.936157)"/>
</clipPath>
</defs>
</svg>
